<svg xmlns="http://www.w3.org/2000/svg" width="32" height="32" viewBox="0 0 32 32">
  <path fill-rule="evenodd" fill="#FFFFFF" d="
    M16 1
    C14 5 9 7 9 13
    C9 13 6.5 9 5 11.5
    C3 14.5 4 19.5 6 23
    C8 26.5 11 30 16 31
    C21 30 24 26.5 26 23
    C28 19.5 29 14.5 27 11.5
    C25.5 9 23 13 23 13
    C23 7 18 5 16 1
    Z
    M11 6
    C9.5 9 7 11 7.5 14
    C8.5 12 10 9 11 6
    Z
    M21 6
    C22 9 23.5 12 24.5 14
    C25 11 22.5 9 21 6
    Z
    M16 13
    C14 17 11.5 19.5 11.5 23
    C11.5 25.5 13.5 28 16 28
    C18.5 28 20.5 25.5 20.5 23
    C20.5 19.5 18 17 16 13
    Z
    M16 18
    C15 20 13.5 22 13.5 24
    C13.5 25.5 14.5 27 16 27
    C17.5 27 18.5 25.5 18.5 24
    C18.5 22 17 20 16 18
    Z
  "/>
</svg>
