<svg xmlns="http://www.w3.org/2000/svg" width="32" height="32" viewBox="0 0 32 32" fill="none">
  <path d="M2 11c2 0 3-2 5-2s3 2 5 2 3-2 5-2 3 2 5 2 3-2 5-2" stroke="#FFFFFF" stroke-width="2.5" stroke-linecap="round" fill="none"/>
  <path d="M2 18c2 0 3-2 5-2s3 2 5 2 3-2 5-2 3 2 5 2 3-2 5-2" stroke="#FFFFFF" stroke-width="2.5" stroke-linecap="round" fill="none"/>
  <path d="M2 25c2 0 3-2 5-2s3 2 5 2 3-2 5-2 3 2 5 2 3-2 5-2" stroke="#FFFFFF" stroke-width="2.5" stroke-linecap="round" fill="none"/>
</svg>
